<svg width="18" height="28" viewBox="0 0 18 28" fill="none" xmlns="http://www.w3.org/2000/svg">
<path fill-rule="evenodd" clip-rule="evenodd" d="M8.11511 27.635C8.23123 27.7514 8.36917 27.8438 8.52103 27.9068C8.67289 27.9698 8.8357 28.0022 9.00011 28.0022C9.16453 28.0022 9.32733 27.9698 9.4792 27.9068C9.63106 27.8438 9.769 27.7514 9.88511 27.635L17.3851 20.135C17.6198 19.9003 17.7517 19.5819 17.7517 19.25C17.7517 18.9181 17.6198 18.5997 17.3851 18.365C17.1504 18.1303 16.8321 17.9984 16.5001 17.9984C16.1682 17.9984 15.8498 18.1303 15.6151 18.365L10.2501 23.7325V1.75C10.2501 1.41848 10.1184 1.10054 9.884 0.866117C9.64958 0.631696 9.33163 0.5 9.00011 0.5C8.66859 0.5 8.35065 0.631696 8.11623 0.866117C7.88181 1.10054 7.75011 1.41848 7.75011 1.75V23.7325L2.38511 18.365C2.1504 18.1303 1.83205 17.9984 1.50011 17.9984C1.16818 17.9984 0.849831 18.1303 0.615114 18.365C0.380398 18.5997 0.248535 18.9181 0.248535 19.25C0.248535 19.5819 0.380398 19.9003 0.615114 20.135L8.11511 27.635Z" fill="#ffffff"/>
</svg>
