<svg width="35" height="35" viewBox="0 0 40 40" fill="none" xmlns="http://www.w3.org/2000/svg">
<g clip-path="url(#clip0_42_2846)">
<path fill-rule="evenodd" clip-rule="evenodd" d="M8.75 25C8.41848 25 8.10054 24.8683 7.86612 24.6339C7.6317 24.3995 7.5 24.0815 7.5 23.75V3.75C7.5 3.41848 7.6317 3.10054 7.86612 2.86612C8.10054 2.6317 8.41848 2.5 8.75 2.5H31.25C31.5815 2.5 31.8995 2.6317 32.1339 2.86612C32.3683 3.10054 32.5 3.41848 32.5 3.75V23.75C32.5 24.0815 32.3683 24.3995 32.1339 24.6339C31.8995 24.8683 31.5815 25 31.25 25H26.25C25.9185 25 25.6005 25.1317 25.3661 25.3661C25.1317 25.6005 25 25.9185 25 26.25C25 26.5815 25.1317 26.8995 25.3661 27.1339C25.6005 27.3683 25.9185 27.5 26.25 27.5H31.25C32.2446 27.5 33.1984 27.1049 33.9017 26.4017C34.6049 25.6984 35 24.7446 35 23.75V3.75C35 2.75544 34.6049 1.80161 33.9017 1.09835C33.1984 0.395088 32.2446 0 31.25 0L8.75 0C7.75544 0 6.80161 0.395088 6.09835 1.09835C5.39509 1.80161 5 2.75544 5 3.75V23.75C5 24.7446 5.39509 25.6984 6.09835 26.4017C6.80161 27.1049 7.75544 27.5 8.75 27.5H13.75C14.0815 27.5 14.3995 27.3683 14.6339 27.1339C14.8683 26.8995 15 26.5815 15 26.25C15 25.9185 14.8683 25.6005 14.6339 25.3661C14.3995 25.1317 14.0815 25 13.75 25H8.75Z" fill="#FFFFFF"/>
<path fill-rule="evenodd" clip-rule="evenodd" d="M19.1151 39.635C19.2312 39.7514 19.3692 39.8438 19.521 39.9068C19.6729 39.9698 19.8357 40.0022 20.0001 40.0022C20.1645 40.0022 20.3273 39.9698 20.4792 39.9068C20.6311 39.8438 20.769 39.7514 20.8851 39.635L28.3851 32.135C28.6198 31.9003 28.7517 31.5819 28.7517 31.25C28.7517 30.9181 28.6198 30.5997 28.3851 30.365C28.1504 30.1303 27.8321 29.9984 27.5001 29.9984C27.1682 29.9984 26.8498 30.1303 26.6151 30.365L21.2501 35.7325V13.75C21.2501 13.4185 21.1184 13.1005 20.884 12.8661C20.6496 12.6317 20.3316 12.5 20.0001 12.5C19.6686 12.5 19.3507 12.6317 19.1162 12.8661C18.8818 13.1005 18.7501 13.4185 18.7501 13.75V35.7325L13.3851 30.365C13.1504 30.1303 12.8321 29.9984 12.5001 29.9984C12.1682 29.9984 11.8498 30.1303 11.6151 30.365C11.3804 30.5997 11.2485 30.9181 11.2485 31.25C11.2485 31.5819 11.3804 31.9003 11.6151 32.135L19.1151 39.635Z" fill="#7DF5CA"/>
</g>
<defs>
<clipPath id="clip0_42_2846">
<rect width="40" height="40" fill="white"/>
</clipPath>
</defs>
</svg>
