<svg width="15" height="15" viewBox="0 0 15 15" xmlns="http://www.w3.org/2000/svg">
<path d="M12.3387 9.12816L14.3213 11.1108C14.6961 11.4856 14.6961 12.0933 14.3213 12.4682C12.2948 14.4947 9.08645 14.7227 6.79367 13.0031L6.66001 12.9029C4.93054 11.6058 3.3942 10.0695 2.09709 8.33999L1.99685 8.20633C0.277271 5.91355 0.505277 2.70525 2.53182 0.678704C2.90666 0.303866 3.51439 0.303866 3.88923 0.678704L5.87184 2.66131C6.26236 3.05184 6.26236 3.685 5.87184 4.07553L4.47409 5.47328C4.2224 5.72497 4.16 6.10948 4.31919 6.42784C5.2394 8.26828 6.73172 9.7606 8.57216 10.6808C8.89052 10.84 9.27503 10.7776 9.52672 10.5259L10.9245 9.12816C11.315 8.73764 11.9482 8.73763 12.3387 9.12816Z" fill="white"/>
</svg>
