<svg width="52" height="2" viewBox="0 0 52 2" fill="none" xmlns="http://www.w3.org/2000/svg">
<g opacity="0.3">
<circle cx="1" cy="1" r="1" fill="#7DF5CA"/>
<circle cx="1" cy="1" r="1" fill="#7DF5CA"/>
<circle cx="1" cy="1" r="1" fill="#7DF5CA"/>
<circle cx="1" cy="1" r="1" fill="#7DF5CA"/>
</g>
<g opacity="0.3">
<circle cx="6" cy="1" r="1" fill="#7DF5CA"/>
<circle cx="6" cy="1" r="1" fill="#7DF5CA"/>
<circle cx="6" cy="1" r="1" fill="#7DF5CA"/>
<circle cx="6" cy="1" r="1" fill="#7DF5CA"/>
</g>
<g opacity="0.34">
<circle cx="11" cy="1" r="1" fill="#7DF5CA"/>
<circle cx="11" cy="1" r="1" fill="#7DF5CA"/>
<circle cx="11" cy="1" r="1" fill="#7DF5CA"/>
<circle cx="11" cy="1" r="1" fill="#7DF5CA"/>
</g>
<g opacity="0.4">
<circle cx="16" cy="1" r="1" fill="#7DF5CA"/>
<circle cx="16" cy="1" r="1" fill="#7DF5CA"/>
<circle cx="16" cy="1" r="1" fill="#7DF5CA"/>
<circle cx="16" cy="1" r="1" fill="#7DF5CA"/>
</g>
<g opacity="0.5">
<circle cx="21" cy="1" r="1" fill="#7DF5CA"/>
<circle cx="21" cy="1" r="1" fill="#7DF5CA"/>
<circle cx="21" cy="1" r="1" fill="#7DF5CA"/>
<circle cx="21" cy="1" r="1" fill="#7DF5CA"/>
</g>
<g opacity="0.5">
<circle cx="26" cy="1" r="1" fill="#7DF5CA"/>
<circle cx="26" cy="1" r="1" fill="#7DF5CA"/>
<circle cx="26" cy="1" r="1" fill="#7DF5CA"/>
<circle cx="26" cy="1" r="1" fill="#7DF5CA"/>
</g>
<g opacity="0.6">
<circle cx="31" cy="1" r="1" fill="#7DF5CA"/>
<circle cx="31" cy="1" r="1" fill="#7DF5CA"/>
<circle cx="31" cy="1" r="1" fill="#7DF5CA"/>
<circle cx="31" cy="1" r="1" fill="#7DF5CA"/>
</g>
<g opacity="0.7">
<circle cx="36" cy="1" r="1" fill="#7DF5CA"/>
<circle cx="36" cy="1" r="1" fill="#7DF5CA"/>
<circle cx="36" cy="1" r="1" fill="#7DF5CA"/>
<circle cx="36" cy="1" r="1" fill="#7DF5CA"/>
</g>
<g opacity="0.8">
<circle cx="41" cy="1" r="1" fill="#7DF5CA"/>
<circle cx="41" cy="1" r="1" fill="#7DF5CA"/>
<circle cx="41" cy="1" r="1" fill="#7DF5CA"/>
<circle cx="41" cy="1" r="1" fill="#7DF5CA"/>
</g>
<g opacity="0.9">
<circle cx="46" cy="1" r="1" fill="#7DF5CA"/>
<circle cx="46" cy="1" r="1" fill="#7DF5CA"/>
<circle cx="46" cy="1" r="1" fill="#7DF5CA"/>
<circle cx="46" cy="1" r="1" fill="#7DF5CA"/>
</g>
<circle cx="51" cy="1" r="1" fill="#7DF5CA"/>
<circle cx="51" cy="1" r="1" fill="#7DF5CA"/>
<circle cx="51" cy="1" r="1" fill="#7DF5CA"/>
<circle cx="51" cy="1" r="1" fill="#7DF5CA"/>
</svg>
