<svg width="11" height="12" viewBox="0 0 11 12" fill="none" xmlns="http://www.w3.org/2000/svg">
<path d="M9.18079 7.5229L10.491 8.83308C10.7721 9.11421 10.7721 9.57 10.491 9.85113C8.97106 11.371 6.56484 11.542 4.84526 10.2524L4.74501 10.1772C3.4479 9.20435 2.29565 8.0521 1.32282 6.75499L1.24764 6.65475C-0.0420471 4.93516 0.128958 2.52894 1.64887 1.00903C1.92999 0.7279 2.38579 0.7279 2.66692 1.00903L3.9771 2.31921C4.36763 2.70973 4.36763 3.3429 3.9771 3.73342L3.10557 4.60496C2.9168 4.79373 2.87 5.08211 2.98939 5.32088C3.67955 6.70121 4.79879 7.82045 6.17912 8.51061C6.41789 8.63 6.70627 8.5832 6.89504 8.39443L7.76658 7.5229C8.1571 7.13237 8.79027 7.13237 9.18079 7.5229Z" fill="white"/>
</svg>
